<svg xmlns="http://www.w3.org/2000/svg" viewBox="0 0 1366 620" preserveAspectRatio="xMidYMid" width="1366" height="620" xmlns:xlink="http://www.w3.org/1999/xlink" style="shape-rendering:auto;display:block;background-position-x:0%;background-position-y:0%;background-size:auto;background-origin:padding-box;background-clip:border-box;background:scroll rgba(0, 0, 0, 0) none  repeat;width:1366px;height:620px;;animation:none"><g><path stroke-width="2" stroke-opacity="0" stroke="rgb(255, 213, 79)" fill="none" d="M 0 344.5 C 228 344.5 455 437.5 683 437.5 C 911 437.5 1138 344.5 1366 344.5 C 1594 344.5 1821 437.5 2049 437.5 C 2277 437.5 2504 344.5 2732 344.5" transform="matrix(1,0,0,1,0,0)" style="fill:none;stroke:rgb(255, 213, 79);transform:matrix(1, 0, 0, 1, 0, 0);;animation:none"></path>
<path stroke-width="2" stroke-opacity="0" stroke="rgb(255, 213, 79)" fill="none" d="M 0 344.514 C 228 344.514 455 437.486 683 437.486 C 911 437.486 1138 344.514 1366 344.514 C 1594 344.514 1821 437.486 2049 437.486 C 2277 437.486 2504 344.514 2732 344.514" transform="matrix(1,0,0,1,-7.285219192504883,0)" style="fill:none;stroke:rgb(255, 213, 79);transform:matrix(1, 0, 0, 1, -7.28522, 0);;animation:none"></path>
<path stroke-width="2" stroke-opacity="0" stroke="rgb(254, 213, 79)" fill="none" d="M 0 344.558 C 228 344.558 455 437.442 683 437.442 C 911 437.442 1138 344.558 1366 344.558 C 1594 344.558 1821 437.442 2049 437.442 C 2277 437.442 2504 344.558 2732 344.558" transform="matrix(1,0,0,1,-14.570438385009766,0)" style="fill:none;stroke:rgb(254, 213, 79);transform:matrix(1, 0, 0, 1, -14.5704, 0);;animation:none"></path>
<path stroke-width="2" stroke-opacity="0" stroke="rgb(254, 213, 79)" fill="none" d="M 0 344.631 C 228 344.631 455 437.369 683 437.369 C 911 437.369 1138 344.631 1366 344.631 C 1594 344.631 1821 437.369 2049 437.369 C 2277 437.369 2504 344.631 2732 344.631" transform="matrix(1,0,0,1,-21.856000900268555,0)" style="fill:none;stroke:rgb(254, 213, 79);transform:matrix(1, 0, 0, 1, -21.856, 0);;animation:none"></path>
<path stroke-width="2" stroke-opacity="0" stroke="rgb(252, 212, 79)" fill="none" d="M 0 344.735 C 228 344.735 455 437.265 683 437.265 C 911 437.265 1138 344.735 1366 344.735 C 1594 344.735 1821 437.265 2049 437.265 C 2277 437.265 2504 344.735 2732 344.735" transform="matrix(1,0,0,1,-29.141218185424805,0)" style="fill:none;stroke:rgb(252, 212, 79);transform:matrix(1, 0, 0, 1, -29.1412, 0);;animation:none"></path>
<path stroke-width="2" stroke-opacity="0" stroke="rgb(251, 212, 80)" fill="none" d="M 0 344.87 C 228 344.87 455 437.13 683 437.13 C 911 437.13 1138 344.87 1366 344.87 C 1594 344.87 1821 437.13 2049 437.13 C 2277 437.13 2504 344.87 2732 344.87" transform="matrix(1,0,0,1,-36.42643737792969,0)" style="fill:none;stroke:rgb(251, 212, 80);transform:matrix(1, 0, 0, 1, -36.4264, 0);;animation:none"></path>
<path stroke-width="2" stroke-opacity="0" stroke="rgb(249, 211, 80)" fill="none" d="M 0 345.038 C 228 345.038 455 436.962 683 436.962 C 911 436.962 1138 345.038 1366 345.038 C 1594 345.038 1821 436.962 2049 436.962 C 2277 436.962 2504 345.038 2732 345.038" transform="matrix(1,0,0,1,-43.71200180053711,0)" style="fill:none;stroke:rgb(249, 211, 80);transform:matrix(1, 0, 0, 1, -43.712, 0);;animation:none"></path>
<path stroke-width="2" stroke-opacity="0" stroke="rgb(246, 210, 81)" fill="none" d="M 0 345.24 C 228 345.24 455 436.76 683 436.76 C 911 436.76 1138 345.24 1366 345.24 C 1594 345.24 1821 436.76 2049 436.76 C 2277 436.76 2504 345.24 2732 345.24" transform="matrix(1,0,0,1,-50.99721908569336,0)" style="fill:none;stroke:rgb(246, 210, 81);transform:matrix(1, 0, 0, 1, -50.9972, 0);;animation:none"></path>
<path stroke-width="2" stroke-opacity="0" stroke="rgb(243, 210, 81)" fill="none" d="M 0 345.477 C 228 345.477 455 436.523 683 436.523 C 911 436.523 1138 345.477 1366 345.477 C 1594 345.477 1821 436.523 2049 436.523 C 2277 436.523 2504 345.477 2732 345.477" transform="matrix(1,0,0,1,-58.28243637084961,0)" style="fill:none;stroke:rgb(243, 210, 81);transform:matrix(1, 0, 0, 1, -58.2824, 0);;animation:none"></path>
<path stroke-width="2" stroke-opacity="0" stroke="rgb(240, 209, 82)" fill="none" d="M 0 345.748 C 228 345.748 455 436.252 683 436.252 C 911 436.252 1138 345.748 1366 345.748 C 1594 345.748 1821 436.252 2049 436.252 C 2277 436.252 2504 345.748 2732 345.748" transform="matrix(1,0,0,1,-65.56800079345703,0)" style="fill:none;stroke:rgb(240, 209, 82);transform:matrix(1, 0, 0, 1, -65.568, 0);;animation:none"></path>
<path stroke-width="2" stroke-opacity="0" stroke="rgb(236, 207, 82)" fill="none" d="M 0 346.057 C 228 346.057 455 435.943 683 435.943 C 911 435.943 1138 346.057 1366 346.057 C 1594 346.057 1821 435.943 2049 435.943 C 2277 435.943 2504 346.057 2732 346.057" transform="matrix(1,0,0,1,-72.85321807861328,0)" style="fill:none;stroke:rgb(236, 207, 82);transform:matrix(1, 0, 0, 1, -72.8532, 0);;animation:none"></path>
<path stroke-width="2" stroke-opacity="0" stroke="rgb(232, 206, 83)" fill="none" d="M 0 346.403 C 228 346.403 455 435.596 683 435.596 C 911 435.596 1138 346.403 1366 346.403 C 1594 346.403 1821 435.596 2049 435.596 C 2277 435.596 2504 346.403 2732 346.403" transform="matrix(1,0,0,1,-80.13844299316406,0)" style="fill:none;stroke:rgb(232, 206, 83);transform:matrix(1, 0, 0, 1, -80.1384, 0);;animation:none"></path>
<path stroke-width="2" stroke-opacity="0" stroke="rgb(227, 205, 84)" fill="none" d="M 0 346.789 C 228 346.789 455 435.211 683 435.211 C 911 435.211 1138 346.789 1366 346.789 C 1594 346.789 1821 435.211 2049 435.211 C 2277 435.211 2504 346.789 2732 346.789" transform="matrix(1,0,0,1,-87.42400360107422,0)" style="fill:none;stroke:rgb(227, 205, 84);transform:matrix(1, 0, 0, 1, -87.424, 0);;animation:none"></path>
<path stroke-width="2" stroke-opacity="0" stroke="rgb(221, 203, 85)" fill="none" d="M 0 347.214 C 228 347.214 455 434.786 683 434.786 C 911 434.786 1138 347.214 1366 347.214 C 1594 347.214 1821 434.786 2049 434.786 C 2277 434.786 2504 347.214 2732 347.214" transform="matrix(1,0,0,1,-94.70921325683594,0)" style="fill:none;stroke:rgb(221, 203, 85);transform:matrix(1, 0, 0, 1, -94.7092, 0);;animation:none"></path>
<path stroke-width="2" stroke-opacity="0" stroke="rgb(215, 201, 86)" fill="none" d="M 0 347.681 C 228 347.681 455 434.319 683 434.319 C 911 434.319 1138 347.681 1366 347.681 C 1594 347.681 1821 434.319 2049 434.319 C 2277 434.319 2504 347.681 2732 347.681" transform="matrix(1,0,0,1,-101.99443817138672,0)" style="fill:none;stroke:rgb(215, 201, 86);transform:matrix(1, 0, 0, 1, -101.994, 0);;animation:none"></path>
<path stroke-width="2" stroke-opacity="0" stroke="rgb(208, 199, 87)" fill="none" d="M 0 348.19 C 228 348.19 455 433.81 683 433.81 C 911 433.81 1138 348.19 1366 348.19 C 1594 348.19 1821 433.81 2049 433.81 C 2277 433.81 2504 348.19 2732 348.19" transform="matrix(1,0,0,1,-109.27999877929688,0)" style="fill:none;stroke:rgb(208, 199, 87);transform:matrix(1, 0, 0, 1, -109.28, 0);;animation:none"></path>
<path stroke-width="2" stroke-opacity="0" stroke="rgb(200, 197, 88)" fill="none" d="M 0 348.743 C 228 348.743 455 433.257 683 433.257 C 911 433.257 1138 348.743 1366 348.743 C 1594 348.743 1821 433.257 2049 433.257 C 2277 433.257 2504 348.743 2732 348.743" transform="matrix(1,0,0,1,-116.56522369384766,0)" style="fill:none;stroke:rgb(200, 197, 88);transform:matrix(1, 0, 0, 1, -116.565, 0);;animation:none"></path>
<path stroke-width="2" stroke-opacity="0" stroke="rgb(192, 194, 90)" fill="none" d="M 0 349.34 C 228 349.34 455 432.66 683 432.66 C 911 432.66 1138 349.34 1366 349.34 C 1594 349.34 1821 432.66 2049 432.66 C 2277 432.66 2504 349.34 2732 349.34" transform="matrix(1,0,0,1,-123.8504409790039,0)" style="fill:none;stroke:rgb(192, 194, 90);transform:matrix(1, 0, 0, 1, -123.85, 0);;animation:none"></path>
<path stroke-width="2" stroke-opacity="0" stroke="rgb(183, 192, 91)" fill="none" d="M 0 349.984 C 228 349.984 455 432.016 683 432.016 C 911 432.016 1138 349.984 1366 349.984 C 1594 349.984 1821 432.016 2049 432.016 C 2277 432.016 2504 349.984 2732 349.984" transform="matrix(1,0,0,1,-131.13600158691406,0)" style="fill:none;stroke:rgb(183, 192, 91);transform:matrix(1, 0, 0, 1, -131.136, 0);;animation:none"></path>
<path stroke-width="2" stroke-opacity="0" stroke="rgb(174, 189, 93)" fill="none" d="M 0 350.675 C 228 350.675 455 431.325 683 431.325 C 911 431.325 1138 350.675 1366 350.675 C 1594 350.675 1821 431.325 2049 431.325 C 2277 431.325 2504 350.675 2732 350.675" transform="matrix(1,0,0,1,-138.4212188720703,0)" style="fill:none;stroke:rgb(174, 189, 93);transform:matrix(1, 0, 0, 1, -138.421, 0);;animation:none"></path>
<path stroke-width="2" stroke-opacity="0" stroke="rgb(164, 186, 95)" fill="none" d="M 0 351.415 C 228 351.415 455 430.585 683 430.585 C 911 430.585 1138 351.415 1366 351.415 C 1594 351.415 1821 430.585 2049 430.585 C 2277 430.585 2504 351.415 2732 351.415" transform="matrix(1,0,0,1,-145.70643615722656,0)" style="fill:none;stroke:rgb(164, 186, 95);transform:matrix(1, 0, 0, 1, -145.706, 0);;animation:none"></path>
<path stroke-width="2" stroke-opacity="0" stroke="rgb(154, 183, 96)" fill="none" d="M 0 352.205 C 228 352.205 455 429.795 683 429.795 C 911 429.795 1138 352.205 1366 352.205 C 1594 352.205 1821 429.795 2049 429.795 C 2277 429.795 2504 352.205 2732 352.205" transform="matrix(1,0,0,1,-152.99200439453125,0)" style="fill:none;stroke:rgb(154, 183, 96);transform:matrix(1, 0, 0, 1, -152.992, 0);;animation:none"></path>
<path stroke-width="2" stroke-opacity="0" stroke="rgb(143, 180, 98)" fill="none" d="M 0 353.047 C 228 353.047 455 428.953 683 428.953 C 911 428.953 1138 353.047 1366 353.047 C 1594 353.047 1821 428.953 2049 428.953 C 2277 428.953 2504 353.047 2732 353.047" transform="matrix(1,0,0,1,-160.2772216796875,0)" style="fill:none;stroke:rgb(143, 180, 98);transform:matrix(1, 0, 0, 1, -160.277, 0);;animation:none"></path>
<path stroke-width="2" stroke-opacity="0" stroke="rgb(132, 176, 100)" fill="none" d="M 0 353.94 C 228 353.94 455 428.06 683 428.06 C 911 428.06 1138 353.94 1366 353.94 C 1594 353.94 1821 428.06 2049 428.06 C 2277 428.06 2504 353.94 2732 353.94" transform="matrix(1,0,0,1,-167.56243896484375,0)" style="fill:none;stroke:rgb(132, 176, 100);transform:matrix(1, 0, 0, 1, -167.562, 0);;animation:none"></path>
<path stroke-width="2" stroke-opacity="0" stroke="rgb(121, 173, 102)" fill="none" d="M 0 354.887 C 228 354.887 455 427.113 683 427.113 C 911 427.113 1138 354.887 1366 354.887 C 1594 354.887 1821 427.113 2049 427.113 C 2277 427.113 2504 354.887 2732 354.887" transform="matrix(1,0,0,1,-174.84800720214844,0)" style="fill:none;stroke:rgb(121, 173, 102);transform:matrix(1, 0, 0, 1, -174.848, 0);;animation:none"></path>
<path stroke-width="2" stroke-opacity="0" stroke="rgb(111, 170, 104)" fill="none" d="M 0 355.889 C 228 355.889 455 426.111 683 426.111 C 911 426.111 1138 355.889 1366 355.889 C 1594 355.889 1821 426.111 2049 426.111 C 2277 426.111 2504 355.889 2732 355.889" transform="matrix(1,0,0,1,-182.1332244873047,0)" style="fill:none;stroke:rgb(111, 170, 104);transform:matrix(1, 0, 0, 1, -182.133, 0);;animation:none"></path>
<path stroke-width="2" stroke-opacity="0" stroke="rgb(100, 167, 106)" fill="none" d="M 0 356.947 C 228 356.947 455 425.053 683 425.053 C 911 425.053 1138 356.947 1366 356.947 C 1594 356.947 1821 425.053 2049 425.053 C 2277 425.053 2504 356.947 2732 356.947" transform="matrix(1,0,0,1,-189.41842651367188,0)" style="fill:none;stroke:rgb(100, 167, 106);transform:matrix(1, 0, 0, 1, -189.418, 0);;animation:none"></path>
<path stroke-width="2" stroke-opacity="0" stroke="rgb(90, 164, 108)" fill="none" d="M 0 358.061 C 228 358.061 455 423.939 683 423.939 C 911 423.939 1138 358.061 1366 358.061 C 1594 358.061 1821 423.939 2049 423.939 C 2277 423.939 2504 358.061 2732 358.061" transform="matrix(1,0,0,1,-196.70399475097656,0)" style="fill:none;stroke:rgb(90, 164, 108);transform:matrix(1, 0, 0, 1, -196.704, 0);;animation:none"></path>
<path stroke-width="2" stroke-opacity="0" stroke="rgb(80, 161, 109)" fill="none" d="M 0 359.232 C 228 359.232 455 422.768 683 422.768 C 911 422.768 1138 359.232 1366 359.232 C 1594 359.232 1821 422.768 2049 422.768 C 2277 422.768 2504 359.232 2732 359.232" transform="matrix(1,0,0,1,-203.98922729492188,0)" style="fill:none;stroke:rgb(80, 161, 109);transform:matrix(1, 0, 0, 1, -203.989, 0);;animation:none"></path>
<path stroke-width="2" stroke-opacity="0" stroke="rgb(71, 158, 111)" fill="none" d="M 0 360.461 C 228 360.461 455 421.539 683 421.539 C 911 421.539 1138 360.461 1366 360.461 C 1594 360.461 1821 421.539 2049 421.539 C 2277 421.539 2504 360.461 2732 360.461" transform="matrix(1,0,0,1,-211.27442932128906,0)" style="fill:none;stroke:rgb(71, 158, 111);transform:matrix(1, 0, 0, 1, -211.274, 0);;animation:none"></path>
<path stroke-width="2" stroke-opacity="0" stroke="rgb(62, 155, 112)" fill="none" d="M 0 361.749 C 228 361.749 455 420.251 683 420.251 C 911 420.251 1138 361.749 1366 361.749 C 1594 361.749 1821 420.251 2049 420.251 C 2277 420.251 2504 361.749 2732 361.749" transform="matrix(1,0,0,1,-218.55999755859375,0)" style="fill:none;stroke:rgb(62, 155, 112);transform:matrix(1, 0, 0, 1, -218.56, 0);;animation:none"></path>
<path stroke-width="2" stroke-opacity="0" stroke="rgb(54, 153, 114)" fill="none" d="M 0 363.094 C 228 363.094 455 418.906 683 418.906 C 911 418.906 1138 363.094 1366 363.094 C 1594 363.094 1821 418.906 2049 418.906 C 2277 418.906 2504 363.094 2732 363.094" transform="matrix(1,0,0,1,-225.84523010253906,0)" style="fill:none;stroke:rgb(54, 153, 114);transform:matrix(1, 0, 0, 1, -225.845, 0);;animation:none"></path>
<path stroke-width="2" stroke-opacity="0" stroke="rgb(46, 151, 115)" fill="none" d="M 0 364.498 C 228 364.498 455 417.502 683 417.502 C 911 417.502 1138 364.498 1366 364.498 C 1594 364.498 1821 417.502 2049 417.502 C 2277 417.502 2504 364.498 2732 364.498" transform="matrix(1,0,0,1,-233.1304473876953,0)" style="fill:none;stroke:rgb(46, 151, 115);transform:matrix(1, 0, 0, 1, -233.13, 0);;animation:none"></path>
<path stroke-width="2" stroke-opacity="0" stroke="rgb(40, 149, 116)" fill="none" d="M 0 365.96 C 228 365.96 455 416.04 683 416.04 C 911 416.04 1138 365.96 1366 365.96 C 1594 365.96 1821 416.04 2049 416.04 C 2277 416.04 2504 365.96 2732 365.96" transform="matrix(1,0,0,1,-240.41600036621094,0)" style="fill:none;stroke:rgb(40, 149, 116);transform:matrix(1, 0, 0, 1, -240.416, 0);;animation:none"></path>
<path stroke-width="2" stroke-opacity="0" stroke="rgb(33, 147, 117)" fill="none" d="M 0 367.479 C 228 367.479 455 414.521 683 414.521 C 911 414.521 1138 367.479 1366 367.479 C 1594 367.479 1821 414.521 2049 414.521 C 2277 414.521 2504 367.479 2732 367.479" transform="matrix(1,0,0,1,-247.7012176513672,0)" style="fill:none;stroke:rgb(33, 147, 117);transform:matrix(1, 0, 0, 1, -247.701, 0);;animation:none"></path>
<path stroke-width="2" stroke-opacity="0" stroke="rgb(28, 145, 118)" fill="none" d="M 0 369.054 C 228 369.054 455 412.946 683 412.946 C 911 412.946 1138 369.054 1366 369.054 C 1594 369.054 1821 412.946 2049 412.946 C 2277 412.946 2504 369.054 2732 369.054" transform="matrix(1,0,0,1,-254.9864501953125,0)" style="fill:none;stroke:rgb(28, 145, 118);transform:matrix(1, 0, 0, 1, -254.986, 0);;animation:none"></path>
<path stroke-width="2" stroke-opacity="0" stroke="rgb(23, 144, 119)" fill="none" d="M 0 370.683 C 228 370.683 455 411.317 683 411.317 C 911 411.317 1138 370.683 1366 370.683 C 1594 370.683 1821 411.317 2049 411.317 C 2277 411.317 2504 370.683 2732 370.683" transform="matrix(1,0,0,1,-262.2720031738281,0)" style="fill:none;stroke:rgb(23, 144, 119);transform:matrix(1, 0, 0, 1, -262.272, 0);;animation:none"></path>
<path stroke-width="2" stroke-opacity="0" stroke="rgb(18, 142, 120)" fill="none" d="M 0 372.365 C 228 372.365 455 409.635 683 409.635 C 911 409.635 1138 372.365 1366 372.365 C 1594 372.365 1821 409.635 2049 409.635 C 2277 409.635 2504 372.365 2732 372.365" transform="matrix(1,0,0,1,-269.5572204589844,0)" style="fill:none;stroke:rgb(18, 142, 120);transform:matrix(1, 0, 0, 1, -269.557, 0);;animation:none"></path>
<path stroke-width="2" stroke-opacity="0" stroke="rgb(15, 141, 120)" fill="none" d="M 0 374.096 C 228 374.096 455 407.904 683 407.904 C 911 407.904 1138 374.096 1366 374.096 C 1594 374.096 1821 407.904 2049 407.904 C 2277 407.904 2504 374.096 2732 374.096" transform="matrix(1,0,0,1,-276.8424377441406,0)" style="fill:none;stroke:rgb(15, 141, 120);transform:matrix(1, 0, 0, 1, -276.842, 0);;animation:none"></path>
<path stroke-width="2" stroke-opacity="0" stroke="rgb(11, 140, 121)" fill="none" d="M 0 375.874 C 228 375.874 455 406.126 683 406.126 C 911 406.126 1138 375.874 1366 375.874 C 1594 375.874 1821 406.126 2049 406.126 C 2277 406.126 2504 375.874 2732 375.874" transform="matrix(1,0,0,1,-284.12799072265625,0)" style="fill:none;stroke:rgb(11, 140, 121);transform:matrix(1, 0, 0, 1, -284.128, 0);;animation:none"></path>
<path stroke-width="2" stroke-opacity="0" stroke="rgb(8, 140, 122)" fill="none" d="M 0 377.695 C 228 377.695 455 404.305 683 404.305 C 911 404.305 1138 377.695 1366 377.695 C 1594 377.695 1821 404.305 2049 404.305 C 2277 404.305 2504 377.695 2732 377.695" transform="matrix(1,0,0,1,-291.4132080078125,0)" style="fill:none;stroke:rgb(8, 140, 122);transform:matrix(1, 0, 0, 1, -291.413, 0);;animation:none"></path>
<path stroke-width="2" stroke-opacity="0" stroke="rgb(6, 139, 122)" fill="none" d="M 0 379.555 C 228 379.555 455 402.445 683 402.445 C 911 402.445 1138 379.555 1366 379.555 C 1594 379.555 1821 402.445 2049 402.445 C 2277 402.445 2504 379.555 2732 379.555" transform="matrix(1,0,0,1,-298.69842529296875,0)" style="fill:none;stroke:rgb(6, 139, 122);transform:matrix(1, 0, 0, 1, -298.698, 0);;animation:none"></path>
<path stroke-width="2" stroke-opacity="0" stroke="rgb(4, 138, 122)" fill="none" d="M 0 381.45 C 228 381.45 455 400.55 683 400.55 C 911 400.55 1138 381.45 1366 381.45 C 1594 381.45 1821 400.55 2049 400.55 C 2277 400.55 2504 381.45 2732 381.45" transform="matrix(1,0,0,1,-305.9840087890625,0)" style="fill:none;stroke:rgb(4, 138, 122);transform:matrix(1, 0, 0, 1, -305.984, 0);;animation:none"></path>
<path stroke-width="2" stroke-opacity="0" stroke="rgb(3, 138, 123)" fill="none" d="M 0 383.373 C 228 383.373 455 398.626 683 398.626 C 911 398.626 1138 383.373 1366 383.373 C 1594 383.373 1821 398.626 2049 398.626 C 2277 398.626 2504 383.373 2732 383.373" transform="matrix(1,0,0,1,-313.26922607421875,0)" style="fill:none;stroke:rgb(3, 138, 123);transform:matrix(1, 0, 0, 1, -313.269, 0);;animation:none"></path>
<path stroke-width="2" stroke-opacity="0" stroke="rgb(1, 137, 123)" fill="none" d="M 0 385.321 C 228 385.321 455 396.679 683 396.679 C 911 396.679 1138 385.321 1366 385.321 C 1594 385.321 1821 396.679 2049 396.679 C 2277 396.679 2504 385.321 2732 385.321" transform="matrix(1,0,0,1,-320.554443359375,0)" style="fill:none;stroke:rgb(1, 137, 123);transform:matrix(1, 0, 0, 1, -320.554, 0);;animation:none"></path>
<path stroke-width="2" stroke-opacity="0" stroke="rgb(1, 137, 123)" fill="none" d="M 0 387.287 C 228 387.287 455 394.713 683 394.713 C 911 394.713 1138 387.287 1366 387.287 C 1594 387.287 1821 394.713 2049 394.713 C 2277 394.713 2504 387.287 2732 387.287" transform="matrix(1,0,0,1,-327.8399963378906,0)" style="fill:none;stroke:rgb(1, 137, 123);transform:matrix(1, 0, 0, 1, -327.84, 0);;animation:none"></path>
<path stroke-width="2" stroke-opacity="0.022727272727272728" stroke="rgb(0, 137, 123)" fill="none" d="M 0 389.265 C 228 389.265 455 392.735 683 392.735 C 911 392.735 1138 389.265 1366 389.265 C 1594 389.265 1821 392.735 2049 392.735 C 2277 392.735 2504 389.265 2732 389.265" transform="matrix(1,0,0,1,-335.1252136230469,0)" style="fill:none;stroke:rgb(0, 137, 123);transform:matrix(1, 0, 0, 1, -335.125, 0);;animation:none"></path>
<path stroke-width="2" stroke-opacity="0.045454545454545456" stroke="rgb(0, 137, 123)" fill="none" d="M 0 391.248 C 228 391.248 455 390.752 683 390.752 C 911 390.752 1138 391.248 1366 391.248 C 1594 391.248 1821 390.752 2049 390.752 C 2277 390.752 2504 391.248 2732 391.248" transform="matrix(1,0,0,1,-342.4104309082031,0)" style="fill:none;stroke:rgb(0, 137, 123);transform:matrix(1, 0, 0, 1, -342.41, 0);;animation:none"></path>
<path stroke-width="2" stroke-opacity="0.06818181818181818" stroke="rgb(0, 137, 123)" fill="none" d="M 0 393.23 C 228 393.23 455 388.77 683 388.77 C 911 388.77 1138 393.23 1366 393.23 C 1594 393.23 1821 388.77 2049 388.77 C 2277 388.77 2504 393.23 2732 393.23" transform="matrix(1,0,0,1,-349.6960144042969,0)" style="fill:none;stroke:rgb(0, 137, 123);transform:matrix(1, 0, 0, 1, -349.696, 0);;animation:none"></path>
<path stroke-width="2" stroke-opacity="0.09090909090909091" stroke="rgb(0, 137, 123)" fill="none" d="M 0 395.206 C 228 395.206 455 386.794 683 386.794 C 911 386.794 1138 395.206 1366 395.206 C 1594 395.206 1821 386.794 2049 386.794 C 2277 386.794 2504 395.206 2732 395.206" transform="matrix(1,0,0,1,-356.9812316894531,0)" style="fill:none;stroke:rgb(0, 137, 123);transform:matrix(1, 0, 0, 1, -356.981, 0);;animation:none"></path>
<path stroke-width="2" stroke-opacity="0.11363636363636363" stroke="rgb(0, 137, 123)" fill="none" d="M 0 397.168 C 228 397.168 455 384.832 683 384.832 C 911 384.832 1138 397.168 1366 397.168 C 1594 397.168 1821 384.832 2049 384.832 C 2277 384.832 2504 397.168 2732 397.168" transform="matrix(1,0,0,1,-364.2664489746094,0)" style="fill:none;stroke:rgb(0, 137, 123);transform:matrix(1, 0, 0, 1, -364.266, 0);;animation:none"></path>
<path stroke-width="2" stroke-opacity="0.13636363636363635" stroke="rgb(1, 136, 123)" fill="none" d="M 0 399.11 C 228 399.11 455 382.89 683 382.89 C 911 382.89 1138 399.11 1366 399.11 C 1594 399.11 1821 382.89 2049 382.89 C 2277 382.89 2504 399.11 2732 399.11" transform="matrix(1,0,0,1,-371.5520324707031,0)" style="fill:none;stroke:rgb(1, 136, 123);transform:matrix(1, 0, 0, 1, -371.552, 0);;animation:none"></path>
<path stroke-width="2" stroke-opacity="0.1590909090909091" stroke="rgb(1, 136, 122)" fill="none" d="M 0 401.027 C 228 401.027 455 380.973 683 380.973 C 911 380.973 1138 401.027 1366 401.027 C 1594 401.027 1821 380.973 2049 380.973 C 2277 380.973 2504 401.027 2732 401.027" transform="matrix(1,0,0,1,-378.83721923828125,0)" style="fill:none;stroke:rgb(1, 136, 122);transform:matrix(1, 0, 0, 1, -378.837, 0);;animation:none"></path>
<path stroke-width="2" stroke-opacity="0.18181818181818182" stroke="rgb(1, 135, 122)" fill="none" d="M 0 402.913 C 228 402.913 455 379.087 683 379.087 C 911 379.087 1138 402.913 1366 402.913 C 1594 402.913 1821 379.087 2049 379.087 C 2277 379.087 2504 402.913 2732 402.913" transform="matrix(1,0,0,1,-386.1224365234375,0)" style="fill:none;stroke:rgb(1, 135, 122);transform:matrix(1, 0, 0, 1, -386.122, 0);;animation:none"></path>
<path stroke-width="2" stroke-opacity="0.20454545454545456" stroke="rgb(2, 135, 121)" fill="none" d="M 0 404.764 C 228 404.764 455 377.236 683 377.236 C 911 377.236 1138 404.764 1366 404.764 C 1594 404.764 1821 377.236 2049 377.236 C 2277 377.236 2504 404.764 2732 404.764" transform="matrix(1,0,0,1,-393.4079895019531,0)" style="fill:none;stroke:rgb(2, 135, 121);transform:matrix(1, 0, 0, 1, -393.408, 0);;animation:none"></path>
<path stroke-width="2" stroke-opacity="0.22727272727272727" stroke="rgb(3, 134, 121)" fill="none" d="M 0 406.575 C 228 406.575 455 375.425 683 375.425 C 911 375.425 1138 406.575 1366 406.575 C 1594 406.575 1821 375.425 2049 375.425 C 2277 375.425 2504 406.575 2732 406.575" transform="matrix(1,0,0,1,-400.6932373046875,0)" style="fill:none;stroke:rgb(3, 134, 121);transform:matrix(1, 0, 0, 1, -400.693, 0);;animation:none"></path>
<path stroke-width="2" stroke-opacity="0.25" stroke="rgb(3, 133, 120)" fill="none" d="M 0 408.341 C 228 408.341 455 373.659 683 373.659 C 911 373.659 1138 408.341 1366 408.341 C 1594 408.341 1821 373.659 2049 373.659 C 2277 373.659 2504 408.341 2732 408.341" transform="matrix(1,0,0,1,-407.97845458984375,0)" style="fill:none;stroke:rgb(3, 133, 120);transform:matrix(1, 0, 0, 1, -407.978, 0);;animation:none"></path>
<path stroke-width="2" stroke-opacity="0.2727272727272727" stroke="rgb(4, 132, 120)" fill="none" d="M 0 410.06 C 228 410.06 455 371.94 683 371.94 C 911 371.94 1138 410.06 1366 410.06 C 1594 410.06 1821 371.94 2049 371.94 C 2277 371.94 2504 410.06 2732 410.06" transform="matrix(1,0,0,1,-415.26397705078125,0)" style="fill:none;stroke:rgb(4, 132, 120);transform:matrix(1, 0, 0, 1, -415.264, 0);;animation:none"></path>
<path stroke-width="2" stroke-opacity="0.29545454545454547" stroke="rgb(5, 131, 119)" fill="none" d="M 0 411.729 C 228 411.729 455 370.271 683 370.271 C 911 370.271 1138 411.729 1366 411.729 C 1594 411.729 1821 370.271 2049 370.271 C 2277 370.271 2504 411.729 2732 411.729" transform="matrix(1,0,0,1,-422.5492248535156,0)" style="fill:none;stroke:rgb(5, 131, 119);transform:matrix(1, 0, 0, 1, -422.549, 0);;animation:none"></path>
<path stroke-width="2" stroke-opacity="0.3181818181818182" stroke="rgb(6, 129, 118)" fill="none" d="M 0 413.345 C 228 413.345 455 368.655 683 368.655 C 911 368.655 1138 413.345 1366 413.345 C 1594 413.345 1821 368.655 2049 368.655 C 2277 368.655 2504 413.345 2732 413.345" transform="matrix(1,0,0,1,-429.8344421386719,0)" style="fill:none;stroke:rgb(6, 129, 118);transform:matrix(1, 0, 0, 1, -429.834, 0);;animation:none"></path>
<path stroke-width="2" stroke-opacity="0.3409090909090909" stroke="rgb(8, 128, 117)" fill="none" d="M 0 414.906 C 228 414.906 455 367.094 683 367.094 C 911 367.094 1138 414.906 1366 414.906 C 1594 414.906 1821 367.094 2049 367.094 C 2277 367.094 2504 414.906 2732 414.906" transform="matrix(1,0,0,1,-437.1199951171875,0)" style="fill:none;stroke:rgb(8, 128, 117);transform:matrix(1, 0, 0, 1, -437.12, 0);;animation:none"></path>
<path stroke-width="2" stroke-opacity="0.36363636363636365" stroke="rgb(9, 126, 116)" fill="none" d="M 0 416.411 C 228 416.411 455 365.589 683 365.589 C 911 365.589 1138 416.411 1366 416.411 C 1594 416.411 1821 365.589 2049 365.589 C 2277 365.589 2504 416.411 2732 416.411" transform="matrix(1,0,0,1,-444.40521240234375,0)" style="fill:none;stroke:rgb(9, 126, 116);transform:matrix(1, 0, 0, 1, -444.405, 0);;animation:none"></path>
<path stroke-width="2" stroke-opacity="0.38636363636363635" stroke="rgb(10, 125, 115)" fill="none" d="M 0 417.858 C 228 417.858 455 364.142 683 364.142 C 911 364.142 1138 417.858 1366 417.858 C 1594 417.858 1821 364.142 2049 364.142 C 2277 364.142 2504 417.858 2732 417.858" transform="matrix(1,0,0,1,-451.6904602050781,0)" style="fill:none;stroke:rgb(10, 125, 115);transform:matrix(1, 0, 0, 1, -451.69, 0);;animation:none"></path>
<path stroke-width="2" stroke-opacity="0.4090909090909091" stroke="rgb(12, 123, 113)" fill="none" d="M 0 419.248 C 228 419.248 455 362.752 683 362.752 C 911 362.752 1138 419.248 1366 419.248 C 1594 419.248 1821 362.752 2049 362.752 C 2277 362.752 2504 419.248 2732 419.248" transform="matrix(1,0,0,1,-458.9759826660156,0)" style="fill:none;stroke:rgb(12, 123, 113);transform:matrix(1, 0, 0, 1, -458.976, 0);;animation:none"></path>
<path stroke-width="2" stroke-opacity="0.4318181818181818" stroke="rgb(14, 120, 112)" fill="none" d="M 0 420.579 C 228 420.579 455 361.421 683 361.421 C 911 361.421 1138 420.579 1366 420.579 C 1594 420.579 1821 361.421 2049 361.421 C 2277 361.421 2504 420.579 2732 420.579" transform="matrix(1,0,0,1,-466.2611999511719,0)" style="fill:none;stroke:rgb(14, 120, 112);transform:matrix(1, 0, 0, 1, -466.261, 0);;animation:none"></path>
<path stroke-width="2" stroke-opacity="0.45454545454545453" stroke="rgb(16, 118, 110)" fill="none" d="M 0 421.852 C 228 421.852 455 360.148 683 360.148 C 911 360.148 1138 421.852 1366 421.852 C 1594 421.852 1821 360.148 2049 360.148 C 2277 360.148 2504 421.852 2732 421.852" transform="matrix(1,0,0,1,-473.54644775390625,0)" style="fill:none;stroke:rgb(16, 118, 110);transform:matrix(1, 0, 0, 1, -473.546, 0);;animation:none"></path>
<path stroke-width="2" stroke-opacity="0.4772727272727273" stroke="rgb(18, 116, 109)" fill="none" d="M 0 423.066 C 228 423.066 455 358.934 683 358.934 C 911 358.934 1138 423.066 1366 423.066 C 1594 423.066 1821 358.934 2049 358.934 C 2277 358.934 2504 423.066 2732 423.066" transform="matrix(1,0,0,1,-480.8320007324219,0)" style="fill:none;stroke:rgb(18, 116, 109);transform:matrix(1, 0, 0, 1, -480.832, 0);;animation:none"></path>
<path stroke-width="2" stroke-opacity="0.5" stroke="rgb(20, 113, 107)" fill="none" d="M 0 424.223 C 228 424.223 455 357.777 683 357.777 C 911 357.777 1138 424.223 1366 424.223 C 1594 424.223 1821 357.777 2049 357.777 C 2277 357.777 2504 424.223 2732 424.223" transform="matrix(1,0,0,1,-488.1172180175781,0)" style="fill:none;stroke:rgb(20, 113, 107);transform:matrix(1, 0, 0, 1, -488.117, 0);;animation:none"></path>
<path stroke-width="2" stroke-opacity="0.5227272727272727" stroke="rgb(22, 110, 105)" fill="none" d="M 0 425.323 C 228 425.323 455 356.677 683 356.677 C 911 356.677 1138 425.323 1366 425.323 C 1594 425.323 1821 356.677 2049 356.677 C 2277 356.677 2504 425.323 2732 425.323" transform="matrix(1,0,0,1,-495.4024353027344,0)" style="fill:none;stroke:rgb(22, 110, 105);transform:matrix(1, 0, 0, 1, -495.402, 0);;animation:none"></path>
<path stroke-width="2" stroke-opacity="0.5454545454545454" stroke="rgb(24, 108, 103)" fill="none" d="M 0 426.366 C 228 426.366 455 355.634 683 355.634 C 911 355.634 1138 426.366 1366 426.366 C 1594 426.366 1821 355.634 2049 355.634 C 2277 355.634 2504 426.366 2732 426.366" transform="matrix(1,0,0,1,-502.68798828125,0)" style="fill:none;stroke:rgb(24, 108, 103);transform:matrix(1, 0, 0, 1, -502.688, 0);;animation:none"></path>
<path stroke-width="2" stroke-opacity="0.5681818181818182" stroke="rgb(27, 105, 102)" fill="none" d="M 0 427.354 C 228 427.354 455 354.646 683 354.646 C 911 354.646 1138 427.354 1366 427.354 C 1594 427.354 1821 354.646 2049 354.646 C 2277 354.646 2504 427.354 2732 427.354" transform="matrix(1,0,0,1,-509.97320556640625,0)" style="fill:none;stroke:rgb(27, 105, 102);transform:matrix(1, 0, 0, 1, -509.973, 0);;animation:none"></path>
<path stroke-width="2" stroke-opacity="0.5909090909090909" stroke="rgb(29, 102, 100)" fill="none" d="M 0 428.288 C 228 428.288 455 353.712 683 353.712 C 911 353.712 1138 428.288 1366 428.288 C 1594 428.288 1821 353.712 2049 353.712 C 2277 353.712 2504 428.288 2732 428.288" transform="matrix(1,0,0,1,-517.2584228515625,0)" style="fill:none;stroke:rgb(29, 102, 100);transform:matrix(1, 0, 0, 1, -517.258, 0);;animation:none"></path>
<path stroke-width="2" stroke-opacity="0.6136363636363636" stroke="rgb(31, 99, 98)" fill="none" d="M 0 429.169 C 228 429.169 455 352.831 683 352.831 C 911 352.831 1138 429.169 1366 429.169 C 1594 429.169 1821 352.831 2049 352.831 C 2277 352.831 2504 429.169 2732 429.169" transform="matrix(1,0,0,1,-524.5440063476562,0)" style="fill:none;stroke:rgb(31, 99, 98);transform:matrix(1, 0, 0, 1, -524.544, 0);;animation:none"></path>
<path stroke-width="2" stroke-opacity="0.6363636363636364" stroke="rgb(34, 97, 96)" fill="none" d="M 0 429.997 C 228 429.997 455 352.003 683 352.003 C 911 352.003 1138 429.997 1366 429.997 C 1594 429.997 1821 352.003 2049 352.003 C 2277 352.003 2504 429.997 2732 429.997" transform="matrix(1,0,0,1,-531.8292236328125,0)" style="fill:none;stroke:rgb(34, 97, 96);transform:matrix(1, 0, 0, 1, -531.829, 0);;animation:none"></path>
<path stroke-width="2" stroke-opacity="0.6590909090909091" stroke="rgb(36, 94, 94)" fill="none" d="M 0 430.774 C 228 430.774 455 351.226 683 351.226 C 911 351.226 1138 430.774 1366 430.774 C 1594 430.774 1821 351.226 2049 351.226 C 2277 351.226 2504 430.774 2732 430.774" transform="matrix(1,0,0,1,-539.1144409179688,0)" style="fill:none;stroke:rgb(36, 94, 94);transform:matrix(1, 0, 0, 1, -539.114, 0);;animation:none"></path>
<g></g></g><!-- [ldio] generated by https://loading.io --></svg>